# xmcd
#
# Track frame offsets:
#	150
#	13971
#	26607
#	41846
#	54713
#	67535
#	81347
#	94795
#	108408
#	121619
#	135366
#	149172
#	162567
#	176834
#	190709
#	204014
#	217130
#	231549
#
# Disc length: 3263 seconds
#
# Revision: 0
# Processed by: cddbd v1.5.1PL0 Copyright (c) Steve Scherf et al.
# Submitted via: audiograbber 1.81.01
#
DISCID=050cbd12
DTITLE=Scrapper Blackwell - Hard Time Blues
DYEAR=2002
DGENRE=Blues
TTITLE0=Trouble Blues
TTITLE1=Blue Day Blues
TTITLE2=Penal Farm Blues
TTITLE3=Hard Time Blues
TTITLE4=Back Door Blues
TTITLE5=Kokomo Blues
TTITLE6=Down South Blues
TTITLE7=Trouble Blues Part 2
TTITLE8=How Long Has That Evening Train Been Gone
TTITLE9=I'll Believe I'll Make A Change
TTITLE10=Big Four Blues
TTITLE11=It's Too Short
TTITLE12=Midnight Hour Blues
TTITLE13=Mean Mistreater Mama
TTITLE14=Blues Night Blues
TTITLE15=Barrelhouse Woman
TTITLE16=Rocks In My Bed
TTITLE17=Tight Time Blues
EXTD=Walle upped this
EXTT0=
EXTT1=
EXTT2=
EXTT3=
EXTT4=
EXTT5=
EXTT6=
EXTT7=
EXTT8=
EXTT9=
EXTT10=
EXTT11=
EXTT12=
EXTT13=
EXTT14=
EXTT15=
EXTT16=
EXTT17=
PLAYORDER=
